<svg width="48" height="16" viewBox="0 0 48 16" fill="none" xmlns="http://www.w3.org/2000/svg">
<path d="M15.4502 11.2568L18.2939 3.04688H19.7295L16.0381 13H14.876L11.1914 3.04688H12.6201L15.4502 11.2568ZM20.2217 9.2334C20.2217 8.50879 20.363 7.8571 20.6455 7.27832C20.9326 6.69954 21.3291 6.25293 21.835 5.93848C22.3454 5.62402 22.9264 5.4668 23.5781 5.4668C24.5853 5.4668 25.3988 5.81543 26.0186 6.5127C26.6429 7.20996 26.9551 8.13737 26.9551 9.29492V9.38379C26.9551 10.1038 26.8161 10.751 26.5381 11.3252C26.2646 11.8949 25.8704 12.3392 25.3555 12.6582C24.8451 12.9772 24.2572 13.1367 23.5918 13.1367C22.5892 13.1367 21.7757 12.7881 21.1514 12.0908C20.5316 11.3936 20.2217 10.4707 20.2217 9.32227V9.2334ZM21.4932 9.38379C21.4932 10.2041 21.6823 10.8626 22.0605 11.3594C22.4434 11.8561 22.9538 12.1045 23.5918 12.1045C24.2344 12.1045 24.7448 11.8538 25.123 11.3525C25.5013 10.8467 25.6904 10.1403 25.6904 9.2334C25.6904 8.4222 25.4967 7.76595 25.1094 7.26465C24.7266 6.75879 24.2161 6.50586 23.5781 6.50586C22.9538 6.50586 22.4502 6.75423 22.0674 7.25098C21.6846 7.74772 21.4932 8.45866 21.4932 9.38379ZM29.915 13H28.6504V2.5H29.915V13ZM33.6611 3.8125V5.60352H35.042V6.58105H33.6611V11.168C33.6611 11.4642 33.7227 11.6875 33.8457 11.8379C33.9688 11.9837 34.1784 12.0566 34.4746 12.0566C34.6204 12.0566 34.821 12.0293 35.0762 11.9746V13C34.7435 13.0911 34.4199 13.1367 34.1055 13.1367C33.5404 13.1367 33.1143 12.9658 32.8271 12.624C32.54 12.2822 32.3965 11.7969 32.3965 11.168V6.58105H31.0498V5.60352H32.3965V3.8125H33.6611ZM41.0918 13C41.0189 12.8542 40.9596 12.5944 40.9141 12.2207C40.3262 12.8314 39.6243 13.1367 38.8086 13.1367C38.0794 13.1367 37.4801 12.9316 37.0107 12.5215C36.5459 12.1068 36.3135 11.5827 36.3135 10.9492C36.3135 10.179 36.6051 9.58203 37.1885 9.1582C37.7764 8.72982 38.6012 8.51562 39.6631 8.51562H40.8936V7.93457C40.8936 7.49251 40.7614 7.1416 40.4971 6.88184C40.2327 6.61751 39.8431 6.48535 39.3281 6.48535C38.877 6.48535 38.4987 6.59928 38.1934 6.82715C37.888 7.05501 37.7354 7.33073 37.7354 7.6543H36.4639C36.4639 7.28516 36.5938 6.92969 36.8535 6.58789C37.1178 6.24154 37.4733 5.9681 37.9199 5.76758C38.3711 5.56706 38.8656 5.4668 39.4033 5.4668C40.2555 5.4668 40.9232 5.68099 41.4062 6.10938C41.8893 6.5332 42.14 7.11882 42.1582 7.86621V11.2705C42.1582 11.9495 42.2448 12.4896 42.418 12.8906V13H41.0918ZM38.9932 12.0361C39.3896 12.0361 39.7656 11.9336 40.1211 11.7285C40.4766 11.5234 40.734 11.2568 40.8936 10.9287V9.41113H39.9023C38.3529 9.41113 37.5781 9.86458 37.5781 10.7715C37.5781 11.168 37.7103 11.4779 37.9746 11.7012C38.2389 11.9245 38.5785 12.0361 38.9932 12.0361ZM47.7158 6.73828C47.5244 6.70638 47.3171 6.69043 47.0938 6.69043C46.2643 6.69043 45.7015 7.04362 45.4053 7.75V13H44.1406V5.60352H45.3711L45.3916 6.45801C45.8063 5.7972 46.3942 5.4668 47.1553 5.4668C47.4014 5.4668 47.5882 5.4987 47.7158 5.5625V6.73828Z" fill="white"/>
<path fill-rule="evenodd" clip-rule="evenodd" d="M5 12.0667L1.89189 9L5 5.93333L4.05405 5L0 9L4.05405 13L5 12.0667Z" fill="#7DE6C6"/>
</svg>
